<?xml version="1.0" encoding="utf-8"?>
<svg xmlns="http://www.w3.org/2000/svg" viewBox="0 0 32 32">
<symbol id="icon-antenna" viewBox="0 0 32 32">

 <path fill="#2E2F42" d="m29.773 22.098-8.443-8.505.937-4.615c.242.094.499.144.758.146h.006a2.159 2.159 0 1 0-2.008-1.435l-4.96.605L7.972.161a.534.534 0 0 0-.377-.16.532.532 0 0 0-.373.155L5.709 1.66a.534.534 0 0 0 0 .754l.814.826a14.943 14.943 0 0 0 2.519 17.663.513.513 0 0 0 .146.098c-.034.18-.051.364-.052.547v6.187h-6.4a2.67 2.67 0 0 0-2.667 2.667v1.067c0 .295.239.533.533.533h24.533a.533.533 0 0 0 .533-.533v-1.067a2.67 2.67 0 0 0-2.667-2.667h-6.4v-2.742a15.09 15.09 0 0 0 3.049.32 14.854 14.854 0 0 0 7.04-1.783l.818.823a.534.534 0 0 0 .377.16.532.532 0 0 0 .373-.155l1.513-1.504a.534.534 0 0 0 0-.754zM22.28 6.233a1.067 1.067 0 1 1 .753 1.822h-.003a1.067 1.067 0 0 1-.747-1.823h-.002zm-1.256 3.505-.598 2.946-1.175-1.182 1.774-1.763zm-.605-.902-1.92 1.909-1.485-1.493 3.405-.415zM23.004 28.8a1.6 1.6 0 0 1 1.6 1.6v.533H1.137V30.4a1.6 1.6 0 0 1 1.6-1.6h20.267zm-7.467-2.133v1.067h-5.333v-1.067h5.333zM10.204 25.6v-4.053c0-1.294 1.196-2.347 2.667-2.347s2.667 1.053 2.667 2.347V25.6h-5.333zm6.4-1.696v-2.357c0-1.882-1.675-3.413-3.733-3.413A3.8 3.8 0 0 0 9.59 19.92 13.87 13.87 0 0 1 7.311 4.033l18.602 18.708a13.818 13.818 0 0 1-9.309 1.163zm11.289-.684L6.836 2.039l.755-.752 7.935 7.98c.004 0 .006.007.01.01l13.115 13.191-.757.752z" />

 <path fill="#4D5AE5" d="m12.876 20.267h-.005a1.6 1.6 0 1 0-.004 3.2h.005a1.6 1.6 0 1 0 .004-3.2zm.373 1.978a.533.533 0 1 1-.378-.911.534.534 0 0 1 .374.911h.005z" />

 </symbol>
<symbol id="icon-diagram" viewBox="0 0 64 64">
          <path d="M29.8511 29.9292H31.9833V39.5242H29.8511V29.9292Z" fill="#4D5AE5"/>
          <path d="M38.3799 34.1936H40.5121V39.5241H38.3799V34.1936Z" fill="#4D5AE5"/>
          <path d="M21.3223 37.392H23.4545V39.5242H21.3223V37.392Z" fill="#4D5AE5"/>
          <path d="M14.9255 36.3258H17.0578V39.5241H14.9255V36.3258Z" fill="#4D5AE5"/>
          <path d="M3.19833 56.5819H54.3715C56.1378 56.5819 57.5699 55.1499 57.5699 53.3836V49.1192C57.5699 47.3529 56.1378 45.9208 54.3715 45.9208H53.3054V19.3342L59.3611 13.5976C60.7666 14.2905 62.4678 13.8699 63.3876 12.6003C64.308 11.3311 64.1789 9.58361 63.0826 8.46336C61.9863 7.34311 60.2424 7.17601 58.953 8.06773C57.6641 8.95997 57.206 10.6513 57.8681 12.0719L53.3054 16.3972V13.9376C53.3054 12.1713 51.8734 10.7393 50.1071 10.7393H7.46276C5.6965 10.7393 4.26443 12.1713 4.26443 13.9376V45.9208H3.19833C1.43206 45.9208 0 47.3529 0 49.1192V53.3836C0 55.1499 1.43206 56.5819 3.19833 56.5819ZM60.7682 9.67314C61.3569 9.67314 61.8343 10.1505 61.8343 10.7393C61.8343 11.328 61.3569 11.8054 60.7682 11.8054C60.1794 11.8054 59.7021 11.328 59.7021 10.7393C59.7021 10.1505 60.1794 9.67314 60.7682 9.67314ZM6.39665 13.9376C6.39665 13.3488 6.874 12.8715 7.46276 12.8715H50.1071C50.6958 12.8715 51.1732 13.3488 51.1732 13.9376V18.4149L49.041 20.4409V16.0698C49.041 15.481 48.5636 15.0037 47.9749 15.0037H9.59498C9.00622 15.0037 8.52887 15.481 8.52887 16.0698V42.7225C8.52887 43.3113 9.00622 43.7886 9.59498 43.7886H47.9749C48.5636 43.7886 49.041 43.3113 49.041 42.7225V23.3738L51.1732 21.3535V45.9208H6.39665V13.9376ZM15.9916 27.797C14.5492 27.7928 13.2826 28.7538 12.899 30.1442C12.5153 31.5346 13.1093 33.0094 14.3498 33.7454C15.5898 34.4815 17.1697 34.2967 18.2061 33.2936L21.912 35.153C22.3425 35.3685 22.8646 35.2676 23.1847 34.9078L31.0624 26.0453L38.8062 31.848C39.2216 32.1593 39.8016 32.126 40.1784 31.7694L46.9088 25.3941V41.6564H10.6611V17.1359H46.9088V22.4566L39.3658 29.5997L31.5569 23.7455C31.1134 23.4133 30.4892 23.4758 30.1207 23.8897L22.1348 32.8751L19.1493 31.3821C19.1712 31.254 19.1847 31.1249 19.19 30.9953C19.19 29.2291 17.7579 27.797 15.9916 27.797ZM17.0577 30.9953C17.0577 31.5841 16.5804 32.0614 15.9916 32.0614C15.4029 32.0614 14.9255 31.5841 14.9255 30.9953C14.9255 30.4066 15.4029 29.9292 15.9916 29.9292C16.5804 29.9292 17.0577 30.4066 17.0577 30.9953ZM23.4544 48.0531H34.1155V49.1192C34.1155 49.7079 33.6381 50.1853 33.0494 50.1853H24.5205C23.9317 50.1853 23.4544 49.7079 23.4544 49.1192V48.0531ZM2.13222 49.1192C2.13222 48.5304 2.60957 48.0531 3.19833 48.0531H21.3222V49.1192C21.3222 50.8854 22.7542 52.3175 24.5205 52.3175H33.0494C34.8156 52.3175 36.2477 50.8854 36.2477 49.1192V48.0531H54.3715C54.9603 48.0531 55.4376 48.5304 55.4376 49.1192V53.3836C55.4376 53.9723 54.9603 54.4497 54.3715 54.4497H3.19833C2.60957 54.4497 2.13222 53.9723 2.13222 53.3836V49.1192Z" fill="#2E2F42"/>
      </symbol>

<symbol id="icon-clock" viewBox="0 0 64 64">
   <path d="M62.5933 30.6025C62.5899 13.6978 48.8828 -0.00341734 31.9775 6.39362e-07C15.0728 0.00341861 1.37158 13.7109 1.375 30.6157C1.37793 43.9316 9.98877 55.7178 22.6738 59.7681C22.7949 59.8062 22.9209 59.8257 23.0474 59.8252C23.2886 59.8247 23.5249 59.7603 23.7324 59.6377C24.0024 59.478 24.2041 59.2241 24.2988 58.9248L32.0288 34.4248C34.1421 34.4141 35.8462 32.6919 35.835 30.5791C35.8242 28.4658 34.1025 26.7617 31.9893 26.7725C31.4209 26.7749 30.8599 26.9058 30.3491 27.1553L20.1372 16.9419C19.6304 16.4526 18.8232 16.4668 18.334 16.9731C17.8564 17.4678 17.8564 18.251 18.334 18.7456L28.5405 28.9639C27.7573 30.5625 28.2051 32.4922 29.6133 33.582L22.2481 56.9277C7.69238 51.5659 0.239258 35.4199 5.60108 20.8643C10.9629 6.30859 27.1089 -1.14453 41.6646 4.21729C56.2202 9.5791 63.6734 25.7256 58.3115 40.2808C55.6919 47.3921 50.3096 53.1431 43.3872 56.2275L42.5913 52.479C42.4458 51.79 41.7686 51.3496 41.0796 51.4956C40.8623 51.542 40.6607 51.644 40.4946 51.792L32.8208 58.6431C32.2944 59.1113 32.2476 59.9175 32.7163 60.4439C32.8687 60.6148 33.064 60.7417 33.2827 60.8115L43.0801 63.9385C43.7505 64.1538 44.4688 63.7852 44.6841 63.1143C44.7525 62.9023 44.7637 62.6768 44.7178 62.459L43.9356 58.7808C55.2642 54.0049 62.6196 42.8965 62.5933 30.6025ZM31.9844 29.3272C32.6885 29.3272 33.2598 29.8984 33.2598 30.6025C33.2598 31.3071 32.6885 31.8779 31.9844 31.8779C31.2798 31.8779 30.709 31.3071 30.709 30.6025C30.709 29.8984 31.2798 29.3272 31.9844 29.3272ZM36.1851 59.0552L40.5532 55.1587L41.7588 60.8394L36.1851 59.0552Z" fill="#2E2F42"/>
<path d="M30.709 6.37012V8.9209C30.709 9.62549 31.2798 10.1963 31.9844 10.1963C32.6885 10.1963 33.2598 9.62549 33.2598 8.9209V6.37012C33.2598 5.66602 32.6885 5.09473 31.9844 5.09473C31.2798 5.09473 30.709 5.66602 30.709 6.37012Z" fill="#4D5AE5"/>
<path d="M7.75195 29.3271C7.04736 29.3271 6.47656 29.8984 6.47656 30.6025C6.47656 31.3071 7.04736 31.8779 7.75195 31.8779H10.3027C11.0073 31.8779 11.5781 31.3071 11.5781 30.6025C11.5781 29.8984 11.0073 29.3271 10.3027 29.3271H7.75195Z" fill="#4D5AE5"/>
<path d="M56.2162 31.8779C56.9208 31.8779 57.4916 31.3071 57.4916 30.6025C57.4916 29.8984 56.9208 29.3271 56.2162 29.3271H53.6655C52.9614 29.3271 52.3901 29.8984 52.3901 30.6025C52.3901 31.3071 52.9614 31.8779 53.6655 31.8779H56.2162Z" fill="#4D5AE5"/>
  </symbol>


    <symbol id="icon-astronaut" viewBox="0 0 64 64">
  <path d="M49.4295 28.3189C48.8546 27.5434 48.0109 27.0443 47.053 26.9098C46.0908 26.7733 45.1414 27.026 44.3734 27.6138L41.8699 29.5327L41.8688 29.5338L38.0734 32.368L35.3577 31.2863C40.2004 29.1135 43.585 24.2697 43.585 18.6461C43.585 11.0001 37.3396 4.7793 29.6627 4.7793C21.9858 4.7793 15.7405 11.0001 15.7405 18.6461C15.7405 21.4174 16.5692 23.9945 17.9805 26.163L12.4529 26.115C12.4497 26.115 12.4465 26.115 12.4433 26.115C12.4262 26.115 12.4124 26.1235 12.3964 26.1246C12.2908 26.1289 12.1873 26.1503 12.086 26.1865C12.0604 26.1961 12.0338 26.2015 12.0093 26.2131C11.9965 26.2185 11.9837 26.2195 11.9709 26.2259L5.50468 29.4184C5.50356 29.4184 5.50256 29.4184 5.50256 29.4194L1.71575 31.2405C1.67412 31.2586 1.6315 31.2831 1.58987 31.3108C0.0804746 32.3156 -0.433659 34.289 0.393104 35.9018C0.833611 36.7594 1.5835 37.3909 2.50514 37.6799C2.86039 37.7908 3.22302 37.8453 3.58353 37.8453C4.16279 37.8453 4.73667 37.7034 5.26243 37.4229L8.03798 35.9466L12.566 33.6085L15.2797 33.5925L4.39629 44.4237C4.39529 44.4248 4.39417 44.4248 4.39304 44.4258L1.71563 47.0924C1.08312 47.7218 0.73536 48.557 0.73536 49.4477C0.73536 50.3374 1.08312 51.1746 1.71563 51.8051C2.36526 52.4515 3.21965 52.7758 4.07404 52.7758C4.92955 52.7758 5.78281 52.4515 6.43457 51.8051L9.06287 49.1875L12.5445 46.5879L14.3462 48.3821L10.8229 51.8904C10.8219 51.8915 10.8208 51.8915 10.8196 51.8925L8.14223 54.5592C7.50972 55.1886 7.16196 56.0237 7.16196 56.9145C7.16196 57.8041 7.50972 58.6414 8.14223 59.2719C8.79186 59.9183 9.64738 60.2425 10.5018 60.2425C11.3562 60.2425 12.2117 59.9183 12.8623 59.2719L15.5407 56.6052L19.8255 52.3385C19.8267 52.3374 19.8267 52.3364 19.8277 52.3353L21.8469 50.3352L21.8394 50.3277C21.8522 50.315 21.8703 50.3106 21.8832 50.2969L32.2151 38.9804L39.1571 39.9682C39.2072 39.9757 39.2573 39.9788 39.3075 39.9788C39.4366 39.9788 39.5613 39.948 39.6819 39.9021C39.7171 39.8893 39.748 39.8722 39.7811 39.8552C39.8195 39.836 39.86 39.8253 39.8964 39.8008L46.3231 35.5341C46.3466 35.5181 46.3593 35.4925 46.3817 35.4755C46.4073 35.4553 46.4393 35.4468 46.4627 35.4243L49.0056 33.0424C50.3288 31.8026 50.5111 29.7717 49.4295 28.3189ZM4.26079 35.5403C3.91416 35.7259 3.52053 35.7631 3.14402 35.6438C2.77064 35.5275 2.46776 35.2725 2.29063 34.928C1.9685 34.3008 2.15513 33.537 2.71939 33.1242L5.34668 31.8602L5.97919 33.7087L6.24482 34.4853L4.26079 35.5403ZM11.255 31.8848L8.15848 33.4849L7.64759 31.9915L7.28071 30.9183L11.3342 28.9172L11.255 31.8848ZM41.4539 18.644C41.4539 20.4808 41.0155 22.2132 40.256 23.763L31.8932 19.9645C31.8057 18.8179 31.2106 17.8141 30.3167 17.189L33.2447 7.46834C38.0001 8.98099 41.4539 13.4173 41.4539 18.644ZM17.876 18.644C17.876 12.1745 23.1646 6.91045 29.6649 6.91045C30.1706 6.91045 30.6655 6.95308 31.1551 7.01496L28.291 16.5224C28.2527 16.5212 28.2164 16.5106 28.1769 16.5106C26.1118 16.5106 24.4317 18.1853 24.4317 20.244C24.4317 22.3027 26.1118 23.9775 28.1769 23.9775C29.5657 23.9775 30.7657 23.2106 31.4132 22.0883L39.1381 25.5977C36.9887 28.4905 33.5486 30.3776 29.6648 30.3776C23.1646 30.3776 17.876 25.1135 17.876 18.644ZM29.7887 20.244C29.7887 21.1262 29.0654 21.8441 28.1769 21.8441C27.2884 21.8441 26.5651 21.1262 26.5651 20.244C26.5651 19.3619 27.2884 18.644 28.1769 18.644C29.0654 18.644 29.7887 19.3619 29.7887 20.244ZM4.92968 50.2925C4.45717 50.7608 3.69228 50.7598 3.2209 50.2936C2.99365 50.0664 2.86889 49.7667 2.86889 49.4477C2.86889 49.1299 2.99365 48.8301 3.2209 48.6051L5.14505 46.6882L6.84746 48.3832L4.92968 50.2925ZM11.3574 57.7594C10.8849 58.2276 10.119 58.2287 9.6475 57.7605C9.42025 57.5332 9.29549 57.2336 9.29549 56.9146C9.29549 56.5967 9.42025 56.297 9.6475 56.072L11.5729 54.1541L12.3783 54.9552L13.2764 55.8491L11.3574 57.7594ZM18.3208 50.8216C18.3196 50.8226 18.3186 50.8226 18.3175 50.8238L14.7878 54.3438L13.9824 53.5427L13.0843 52.6488L16.6107 49.1384C16.6107 49.1384 16.6107 49.1384 16.6107 49.1374C16.6119 49.1362 16.6129 49.1362 16.614 49.1352C16.694 49.0552 16.7441 48.9592 16.7932 48.8643C16.8071 48.8366 16.8337 48.8131 16.8455 48.7843C16.8786 48.7022 16.8839 48.6137 16.8967 48.5272C16.9031 48.4781 16.9245 48.4323 16.9245 48.3821C16.9245 48.3106 16.8989 48.2413 16.884 48.1708C16.8712 48.1068 16.8712 48.0417 16.8466 47.98C16.8061 47.8797 16.7367 47.7912 16.6642 47.7047C16.644 47.6812 16.6365 47.6513 16.6141 47.629C16.6141 47.629 16.6141 47.629 16.613 47.629C16.6119 47.628 16.6119 47.6257 16.6109 47.6247L13.3969 44.4247C13.3628 44.3905 13.3191 44.3767 13.2807 44.3479C13.2242 44.3042 13.1698 44.2637 13.1068 44.2327C13.0461 44.2028 12.9842 44.1847 12.9202 44.1675C12.8519 44.1483 12.7858 44.1334 12.7143 44.128C12.6492 44.1238 12.5884 44.1302 12.5234 44.1377C12.4519 44.1462 12.3848 44.1558 12.3154 44.1782C12.2482 44.1995 12.1885 44.2325 12.1267 44.2678C12.0872 44.2902 12.0424 44.2977 12.005 44.3254L8.45836 46.9729L6.6567 45.1788L11.4547 40.4065L20.1759 48.9837L18.3208 50.8216ZM31.9584 36.7883C31.9275 36.784 31.8986 36.7958 31.8677 36.7937C31.7898 36.7894 31.7152 36.7948 31.6373 36.8075C31.5766 36.8182 31.519 36.8299 31.4613 36.8502C31.3931 36.8737 31.3312 36.9057 31.2682 36.944C31.2085 36.9803 31.1541 37.0187 31.1018 37.0667C31.0762 37.089 31.0453 37.0998 31.0218 37.1253L21.6253 47.4167L12.9692 38.9034L18.6354 33.2671C19.0525 32.8511 19.0546 32.1758 18.6386 31.7577C18.4285 31.5476 18.1523 31.4441 17.876 31.4452V31.4442L13.4386 31.4708L13.4941 28.2559L19.7022 28.3093C22.2323 30.8971 25.7609 32.511 29.6649 32.511C30.5396 32.511 31.393 32.4203 32.2239 32.2656C32.3039 32.3296 32.3827 32.3947 32.4831 32.4352L37.3024 34.3553L37.6074 35.872L37.9637 37.6427L31.9584 36.7883ZM40.0406 37.1445L39.4145 34.0287L42.3073 31.8687L43.0647 32.8735L44.2007 34.3818L40.0406 37.1445ZM47.5478 31.4826L45.8721 33.0527L44.0097 30.5802L45.6726 29.3055C45.9829 29.0667 46.3745 28.9695 46.7585 29.0197C47.1446 29.074 47.486 29.2757 47.7185 29.5882C48.1516 30.1717 48.078 30.9856 47.5478 31.4826Z" fill="#2E2F42"/>
  <path d="M27.2041 37.0881L22.9182 32.8214C22.5033 32.4065 21.829 32.4065 21.413 32.8214L17.1282 37.0881C16.9277 37.2897 16.8146 37.5606 16.8146 37.8444C16.8146 38.1281 16.9266 38.4001 17.1282 38.6006L21.413 42.8673C21.621 43.0742 21.8942 43.1777 22.1662 43.1777C22.4382 43.1777 22.7112 43.0742 22.9182 42.8673L27.2041 38.6006C27.4046 38.4001 27.5187 38.1281 27.5187 37.8444C27.5187 37.5606 27.4056 37.2886 27.2041 37.0881ZM22.1662 40.606L19.3927 37.8444L22.1662 35.0827L24.9406 37.8444L22.1662 40.606Z" fill="#2E2F42"/>
  <path d="M34.3285 10.1415L33.8132 12.213C33.9551 12.2483 37.2885 13.1165 37.2885 16.5107H39.4219C39.4218 12.4764 36.0906 10.5799 34.3285 10.1415Z" fill="#2E2F42"/>
  <path d="M39.422 18.644H37.2886V20.7775H39.422V18.644Z" fill="#2E2F42"/>
  <path d="M63.9481 9.04812C63.8222 8.66299 63.4894 8.38149 63.0873 8.32274L59.2665 7.76698L57.5566 4.30455C57.1982 3.57492 56.0025 3.57492 55.6441 4.30455L53.9342 7.76698L50.1132 8.32286C49.7111 8.38149 49.3784 8.66212 49.2514 9.04825C49.1266 9.43438 49.23 9.85889 49.5212 10.1416L52.2872 12.8372L51.6344 16.6431C51.5661 17.0431 51.7304 17.4474 52.0579 17.6864C52.3897 17.9275 52.8227 17.9573 53.1822 17.7674L56.5998 15.97L60.0175 17.7674C60.1733 17.8495 60.345 17.89 60.5146 17.89C60.7354 17.89 60.9563 17.8218 61.1419 17.6863C61.4704 17.4474 61.6347 17.043 61.5654 16.643L60.9127 12.8371L63.6786 10.1415C63.9683 9.85776 64.073 9.43425 63.9481 9.04812ZM59.0223 11.702C58.7716 11.9463 58.6564 12.3004 58.7161 12.6461L59.098 14.8743L57.097 13.8226C56.9412 13.7404 56.7706 13.6999 56.5998 13.6999C56.4292 13.6999 56.2596 13.7404 56.1027 13.8226L54.1016 14.8743L54.4834 12.6461C54.5432 12.3004 54.4279 11.9474 54.1773 11.702L52.557 10.1234L54.7949 9.79801C55.1427 9.74788 55.4424 9.52926 55.5982 9.2145L56.5987 7.18785L57.5992 9.2145C57.755 9.52913 58.0547 9.74788 58.4025 9.79801L60.6404 10.1234L59.0223 11.702Z" fill="#4D5AE5"/>
  <path d="M52.267 41.0444H50.1335V43.1778H52.267V41.0444Z" fill="#4D5AE5"/>
  <path d="M52.267 45.3112H50.1335V47.4445H52.267V45.3112Z" fill="#4D5AE5"/>
  <path d="M54.4004 43.1777H52.267V45.3111H54.4004V43.1777Z" fill="#4D5AE5"/>
  <path d="M50.1337 43.1777H48.0002V45.3111H50.1337V43.1777Z" fill="#4D5AE5"/>
  <path d="M44.8001 52.778H42.6667V54.9113H44.8001V52.778Z" fill="#4D5AE5"/>
  <path d="M44.8001 57.0447H42.6667V59.1781H44.8001V57.0447Z" fill="#4D5AE5"/>
  <path d="M46.9336 54.9114H44.8002V57.0448H46.9336V54.9114Z" fill="#4D5AE5"/>
  <path d="M42.6667 54.9114H40.5333V57.0448H42.6667V54.9114Z" fill="#4D5AE5"/>
  <path d="M32 48.5112H29.8666V50.6446H32V48.5112Z" fill="#4D5AE5"/>
  <path d="M32 52.778H29.8666V54.9113H32V52.778Z" fill="#4D5AE5"/>
  <path d="M34.1334 50.6445H32V52.7779H34.1334V50.6445Z" fill="#4D5AE5"/>
  <path d="M29.8666 50.6445H27.7332V52.7779H29.8666V50.6445Z" fill="#4D5AE5"/>
  <path d="M11.733 12.2439H9.59961V14.3773H11.733V12.2439Z" fill="#4D5AE5"/>
  <path d="M11.733 16.5107H9.59961V18.6442H11.733V16.5107Z" fill="#4D5AE5"/>
  <path d="M13.8663 14.3773H11.7329V16.5107H13.8663V14.3773Z" fill="#4D5AE5"/>
  <path d="M9.59971 14.3773H7.46631V16.5107H9.59971V14.3773Z" fill="#4D5AE5"/>
</symbol>

    <symbol id="icon-facebook" viewBox="0 0 32 32">
        <path d="M21.329 5.313h2.921V.225C23.746.156 22.013 0 19.994 0c-4.212 0-7.097 2.649-7.097 7.519V12H8.249v5.688h4.648V32h5.699V17.689h4.46l.708-5.688h-5.169V8.082c.001-1.644.444-2.769 2.735-2.769z" />
    </symbol>
    <symbol id="icon-instagram" viewBox="0 0 32 32">
        <path d="M31.969 9.408c-.075-1.7-.35-2.869-.744-3.882a7.803 7.803 0 0 0-1.85-2.838A7.867 7.867 0 0 0 26.543.844C25.524.45 24.361.175 22.661.1 20.948.019 20.404 0 16.06 0s-4.888.019-6.595.094c-1.7.075-2.869.35-3.882.744a7.803 7.803 0 0 0-2.838 1.85A7.867 7.867 0 0 0 .901 5.52C.507 6.539.232 7.702.157 9.402c-.081 1.713-.1 2.257-.1 6.601s.019 4.888.094 6.595c.075 1.7.35 2.869.744 3.882a7.895 7.895 0 0 0 1.85 2.838 7.867 7.867 0 0 0 2.832 1.844c1.019.394 2.182.669 3.882.744 1.706.075 2.25.094 6.595.094s4.888-.018 6.595-.094c1.7-.075 2.869-.35 3.882-.744a8.181 8.181 0 0 0 4.682-4.682c.394-1.019.669-2.182.744-3.882.075-1.707.094-2.251.094-6.595s-.006-4.888-.081-6.595zm-2.882 13.065c-.069 1.563-.331 2.407-.55 2.969a5.307 5.307 0 0 1-3.038 3.038c-.563.219-1.413.481-2.969.55-1.688.075-2.194.094-6.464.094s-4.782-.018-6.464-.094c-1.563-.069-2.407-.331-2.969-.55a4.926 4.926 0 0 1-1.838-1.194 4.974 4.974 0 0 1-1.194-1.838c-.219-.563-.481-1.413-.55-2.969-.075-1.688-.094-2.194-.094-6.464s.019-4.782.094-6.464c.069-1.563.331-2.407.55-2.969a4.868 4.868 0 0 1 1.2-1.838A4.974 4.974 0 0 1 6.639 3.55c.563-.219 1.413-.481 2.969-.55 1.688-.075 2.194-.094 6.464-.094 4.276 0 4.782.019 6.464.094 1.563.069 2.407.331 2.969.55a4.914 4.914 0 0 1 1.838 1.194 4.974 4.974 0 0 1 1.194 1.838c.219.563.481 1.413.55 2.969.075 1.688.094 2.194.094 6.464s-.019 4.77-.094 6.457z" />
        <path d="M16.059 7.782c-4.538 0-8.22 3.682-8.22 8.22s3.682 8.22 8.22 8.22 8.22-3.682 8.22-8.22-3.682-8.22-8.22-8.22zm0 13.553a5.333 5.333 0 0 1 0-10.664 5.333 5.333 0 0 1 0 10.664zM26.524 7.457a1.919 1.919 0 1 1-3.838 0 1.919 1.919 0 0 1 3.838 0z" />
    </symbol>
    <symbol id="icon-linkedin" viewBox="0 0 32 32">
        <path d="M31.992 32v-.001H32V20.263c0-5.741-1.236-10.164-7.948-10.164-3.227 0-5.392 1.771-6.276 3.449h-.093v-2.913h-6.364v21.364h6.627V21.42c0-2.785.528-5.479 3.977-5.479 3.399 0 3.449 3.179 3.449 5.657v10.401h6.62zM.528 10.636h6.635V32H.528V10.636zM3.843 0C1.722 0 0 1.721 0 3.843s1.721 3.879 3.843 3.879c2.121 0 3.843-1.757 3.843-3.879A3.846 3.846 0 0 0 3.843 0z" />
    </symbol>
    <symbol id="icon-twitter" viewBox="0 0 32 32">
        <path d="M32 6.078c-1.19.522-2.458.868-3.78 1.036a6.523 6.523 0 0 0 2.886-3.626 13.11 13.11 0 0 1-4.16 1.588A6.574 6.574 0 0 0 22.154 3c-3.632 0-6.556 2.948-6.556 6.562 0 .52.044 1.02.152 1.496-5.454-.266-10.28-2.88-13.522-6.862a6.605 6.605 0 0 0-.898 3.316 6.57 6.57 0 0 0 2.914 5.452 6.479 6.479 0 0 1-2.964-.808v.072c0 3.188 2.274 5.836 5.256 6.446a6.548 6.548 0 0 1-1.72.216 5.8 5.8 0 0 1-1.242-.112c.85 2.598 3.262 4.508 6.13 4.57a13.182 13.182 0 0 1-8.134 2.798c-.538 0-1.054-.024-1.57-.09A18.469 18.469 0 0 0 10.064 29c12.072 0 18.672-10 18.672-18.668 0-.29-.01-.57-.024-.848A13.087 13.087 0 0 0 32 6.078z" />
    </symbol>
    <symbol id="icon-send" viewBox="0 0 24 20">
        <path d="M24 0L0 11.25L7.66994 13.6172L19.5 4.375L10.5017 14.4913L10.509 14.4936L10.5 14.4913V20L14.8013 15.8183L20.2501 17.5L24 0Z" />
    </symbol>
    <symbol id="icon-close-modal" viewBox="0 0 24 24">
        <path d="M16 8.80571L15.1943 8L12 11.1943L8.80571 8L8 8.80571L11.1943 12L8 15.1943L8.80571 16L12 12.8057L15.1943 16L16 15.1943L12.8057 12L16 8.80571Z" />
    </symbol>
    <symbol id="icon-person" viewBox="0 0 18 18">
        <path d="M9 9C10.6575 9 12 7.6575 12 6C12 4.3425 10.6575 3 9 3C7.3425 3 6 4.3425 6 6C6 7.6575 7.3425 9 9 9ZM9 10.5C6.9975 10.5 3 11.505 3 13.5V14.25C3 14.6625 3.3375 15 3.75 15H14.25C14.6625 15 15 14.6625 15 14.25V13.5C15 11.505 11.0025 10.5 9 10.5Z" />
    </symbol>
    <symbol id="icon-phone" viewBox="0 0 18 24">
        <path d="M14.7263 13.8651L12.8881 13.6552C12.4467 13.6046 12.0125 13.7566 11.7013 14.0677L10.3697 15.3993C8.3217 14.3572 6.64276 12.6855 5.60067 10.6303L6.93947 9.29144C7.25065 8.98025 7.40263 8.54605 7.35197 8.1046L7.1421 6.28092C7.05526 5.55 6.44013 5 5.70198 5H4.45002C3.63226 5 2.952 5.68026 3.00266 6.49802C3.38621 12.6783 8.32893 17.6138 14.5019 17.9973C15.3197 18.048 15.9999 17.3677 15.9999 16.55V15.298C16.0072 14.5671 15.4572 13.952 14.7263 13.8651Z" />
    </symbol>
    <symbol id="icon-email" viewBox="0 0 16 12">
        <path d="M14 0H2C1.175 0 0.5075 0.675 0.5075 1.5L0.5 10.5C0.5 11.325 1.175 12 2 12H14C14.825 12 15.5 11.325 15.5 10.5V1.5C15.5 0.675 14.825 0 14 0ZM13.7 3.1875L8.3975 6.5025C8.1575 6.6525 7.8425 6.6525 7.6025 6.5025L2.3 3.1875C2.1125 3.0675 2 2.865 2 2.6475C2 2.145 2.5475 1.845 2.975 2.1075L8 5.25L13.025 2.1075C13.4525 1.845 14 2.145 14 2.6475C14 2.865 13.8875 3.0675 13.7 3.1875Z" />
    </symbol>
    <symbol id="icon-check" viewBox="0 0 16 16">
        <rect x="0.5" y="0.5" width="15" height="15" rx="1.5" />
        <rect x="0.5" y="0.5" width="15" height="15" rx="1.5" />
        <path fill="currentColor" d="M11.4456 4.25506C11.6184 4.08965 11.8483 3.99821 12.0869 4.00003C12.3255 4.00184 12.5541 4.09677 12.7244 4.26478C12.8947 4.4328 12.9934 4.66075 12.9997 4.90055C13.006 5.14034 12.9194 5.37323 12.7582 5.55005L7.86357 11.7044C7.77941 11.7955 7.67782 11.8686 7.5649 11.9194C7.45198 11.9702 7.33003 11.9975 7.20636 11.9998C7.08268 12.0021 6.95981 11.9793 6.8451 11.9328C6.73038 11.8863 6.62618 11.817 6.53872 11.729L3.29283 8.46564C3.20243 8.38096 3.12993 8.27884 3.07965 8.16537C3.02936 8.05191 3.00232 7.92942 3.00014 7.80522C2.99796 7.68102 3.02069 7.55765 3.06696 7.44248C3.11323 7.3273 3.18211 7.22267 3.26947 7.13483C3.35684 7.047 3.4609 6.97775 3.57547 6.93123C3.69003 6.88471 3.81273 6.86186 3.93627 6.86405C4.0598 6.86624 4.18163 6.89343 4.29449 6.94398C4.40734 6.99454 4.50892 7.06743 4.59315 7.15831L7.16189 9.73967L11.4223 4.28219C11.4299 4.27269 11.4381 4.26364 11.4468 4.25506H11.4456Z" />
    </symbol>
  <symbol id="icon-Vector" viewBox="0 0 10 8">
        <path d="M9.16 0.816c-.2-.2-.52-.2-.72 0L3.84 5.422 1.56 3.142c-.2-.2-.52-.2-.72 0-.2.2-.2.52 0 .72l2.64 2.64c.2.2.52.2.72 0l5.28-5.28c.2-.2.2-.52 0-.72Z"/>
    </symbol>
    <symbol id="icon-check-mark" viewBox="0 0 10 8">
        <path d="M9.5 0.5L3.5 6.5L0.5 3.5L0 4L3.5 7.5L10 1L9.5 0.5Z" />
    </symbol>
<symbol id="icon-hamburger" viewBox="0 0 24 24">
    <path d="M3 18H21V16H3V18ZM3 13H21V11H3V13ZM3 6V8H21V6H3Z" />
</symbol>
</svg>